<svg width="16" height="16" viewBox="0 0 16 16" fill="none" xmlns="http://www.w3.org/2000/svg">
<rect width="16" height="16" fill="#EB5437"/>
<path d="M4.47559 14.89C2.4808 14.89 1.20805 13.8491 1 12.1348H2.79899C3.01927 13.0655 3.48431 13.4328 4.47559 13.4328C5.40568 13.4328 5.95639 13.0899 5.95639 12.4654V12.2695C5.95639 11.7552 5.62596 11.4124 4.5735 11.2409L3.63117 11.0817C2.11366 10.8368 1.19581 9.94294 1.19581 8.57148C1.19581 7.0041 2.4808 6 4.35321 6C6.23786 6 7.376 7.02859 7.63299 8.73067H5.82177C5.61373 7.82453 5.17316 7.45717 4.32874 7.45717C3.50879 7.45717 3.00703 7.80004 3.00703 8.37556V8.57148C3.00703 9.07353 3.32522 9.42864 4.37769 9.60008L5.30778 9.74702C6.862 9.97968 7.75538 10.8981 7.75538 12.2573C7.75538 13.9104 6.5071 14.89 4.47559 14.89Z" fill="#171717"/>
<path d="M8.30026 14.792V6.09796H10.1604V9.58783H13.0486V6.09796H14.8965V14.792H13.0486V11.2409H10.1604V14.792H8.30026Z" fill="#171717"/>
</svg>
