<svg width="32" height="32" viewBox="0 0 32 32" fill="none" xmlns="http://www.w3.org/2000/svg">
<rect width="32" height="32" fill="#EB5437"/>
<path d="M7.50252 30.6666C3.96171 30.6666 1.70254 28.819 1.33325 25.7761H4.5265C4.91751 27.428 5.74298 28.08 7.50252 28.08C9.15345 28.08 10.131 27.4714 10.131 26.3629V26.0152C10.131 25.1023 9.54446 24.4937 7.67631 24.1894L6.00365 23.9068C3.31003 23.4721 1.68082 21.8854 1.68082 19.4511C1.68082 16.6689 3.96171 14.8866 7.28529 14.8866C10.6306 14.8866 12.6508 16.7124 13.107 19.7336H9.89203C9.52274 18.1252 8.74072 17.4731 7.24185 17.4731C5.78642 17.4731 4.89579 18.0817 4.89579 19.1033V19.4511C4.89579 20.3422 5.46058 20.9725 7.32874 21.2768L8.97967 21.5377C11.7385 21.9506 13.3242 23.5808 13.3242 25.9934C13.3242 28.9277 11.1085 30.6666 7.50252 30.6666Z" fill="#171717"/>
<path d="M14.2914 30.4927V15.0605H17.5933V21.2551H22.7199V15.0605H26V30.4927H22.7199V24.1894H17.5933V30.4927H14.2914Z" fill="#171717"/>
</svg>
