<svg width="256" height="256" viewBox="0 0 256 256" fill="none" xmlns="http://www.w3.org/2000/svg">
<rect width="256" height="256" fill="#EB5437"/>
<path d="M52.3686 245.333C28.4341 245.333 13.1629 232.845 10.6667 212.275H32.2519C34.8949 223.442 40.4748 227.849 52.3686 227.849C63.5283 227.849 70.136 223.735 70.136 216.242V213.892C70.136 207.721 66.1714 203.607 53.5433 201.55L42.2368 199.64C24.0289 196.702 13.0161 185.976 13.0161 169.521C13.0161 150.714 28.4341 138.667 50.9003 138.667C73.5133 138.667 87.1692 151.008 90.2528 171.431H68.5208C66.0246 160.558 60.7384 156.151 50.6066 156.151C40.7685 156.151 34.7481 160.264 34.7481 167.17V169.521C34.7481 175.544 38.5659 179.805 51.1939 181.862L62.3536 183.625C81.002 186.417 91.7212 197.436 91.7212 213.745C91.7212 233.579 76.7437 245.333 52.3686 245.333Z" fill="#171717"/>
<path d="M98.259 244.158V139.842H120.578V181.715H155.232V139.842H177.405V244.158H155.232V201.55H120.578V244.158H98.259Z" fill="#171717"/>
</svg>
