<svg width="64" height="64" viewBox="0 0 64 64" fill="none" xmlns="http://www.w3.org/2000/svg">
<rect width="64" height="64" fill="#D6D8CA"/>
<path d="M13.0921 61.3332C7.10847 61.3332 3.29069 58.211 2.66663 53.0687H8.06292C8.72369 55.8603 10.1186 56.9622 13.0921 56.9622C15.882 56.9622 17.534 55.9337 17.534 54.0604V53.4727C17.534 51.93 16.5428 50.9016 13.3858 50.3873L10.5592 49.9098C6.00719 49.1752 3.25398 46.4939 3.25398 42.38C3.25398 37.6784 7.10847 34.6665 12.725 34.6665C18.3783 34.6665 21.7923 37.7519 22.5632 42.8575H17.1302C16.5061 40.1394 15.1846 39.0375 12.6516 39.0375C10.1921 39.0375 8.68698 40.066 8.68698 41.7923V42.38C8.68698 43.886 9.64143 44.9512 12.7984 45.4654L15.5884 45.9062C20.2505 46.6041 22.9303 49.3589 22.9303 53.436C22.9303 58.3947 19.1859 61.3332 13.0921 61.3332Z" fill="#EB5437"/>
<path d="M24.5647 61.0393V34.9604H30.1445V45.4287H38.808V34.9604H44.3511V61.0393H38.808V50.3873H30.1445V61.0393H24.5647Z" fill="#EB5437"/>
</svg>
