<svg width="16" height="16" viewBox="0 0 16 16" fill="none" xmlns="http://www.w3.org/2000/svg">
<rect width="16" height="16" fill="#171717"/>
<path d="M7.86655 12.89C5.64737 12.89 4.23145 11.7321 4 9.82491H6.00135C6.24641 10.8602 6.76376 11.2689 7.86655 11.2689C8.90126 11.2689 9.51391 10.8875 9.51391 10.1927V9.97475C9.51391 9.40261 9.14632 9.02117 7.97546 8.83046L6.92714 8.65337C5.23893 8.38091 4.21783 7.38647 4.21783 5.86074C4.21783 4.11705 5.64737 3 7.7304 3C9.82705 3 11.0932 4.1443 11.3791 6.03783H9.36415C9.13271 5.02976 8.64258 4.62109 7.70317 4.62109C6.79099 4.62109 6.23279 5.00252 6.23279 5.64278V5.86074C6.23279 6.41926 6.58677 6.81432 7.75763 7.00503L8.79234 7.16851C10.5214 7.42733 11.5153 8.44903 11.5153 9.96113C11.5153 11.8002 10.1266 12.89 7.86655 12.89Z" fill="#EB5437"/>
</svg>
