<svg width="64" height="64" viewBox="0 0 64 64" fill="none" xmlns="http://www.w3.org/2000/svg">
<rect width="64" height="64" fill="#EB5437"/>
<path d="M13.0921 61.3333C7.10847 61.3333 3.29069 58.2112 2.66663 53.0688H8.06292C8.72369 55.8604 10.1186 56.9623 13.0921 56.9623C15.882 56.9623 17.534 55.9338 17.534 54.0606V53.4729C17.534 51.9302 16.5428 50.9017 13.3858 50.3875L10.5592 49.91C6.00719 49.1753 3.25398 46.494 3.25398 42.3801C3.25398 37.6786 7.10847 34.6666 12.725 34.6666C18.3783 34.6666 21.7923 37.752 22.5632 42.8576H17.1302C16.5061 40.1395 15.1846 39.0376 12.6516 39.0376C10.1921 39.0376 8.68698 40.0661 8.68698 41.7924V42.3801C8.68698 43.8861 9.64143 44.9513 12.7984 45.4655L15.5884 45.9063C20.2505 46.6042 22.9303 49.359 22.9303 53.4361C22.9303 58.3948 19.1859 61.3333 13.0921 61.3333Z" fill="#171717"/>
<path d="M24.5647 61.0394V34.9605H30.1445V45.4288H38.808V34.9605H44.3511V61.0394H38.808V50.3875H30.1445V61.0394H24.5647Z" fill="#171717"/>
</svg>
