<svg width="512" height="512" viewBox="0 0 512 512" fill="none" xmlns="http://www.w3.org/2000/svg">
<rect width="512" height="512" fill="#171717"/>
<path d="M104.737 490.667C56.8681 490.667 26.3258 465.69 21.3333 424.551H64.5036C69.7898 446.883 80.9495 455.699 104.737 455.699C127.057 455.699 140.272 447.471 140.272 432.485V427.783C140.272 415.442 132.343 407.214 107.087 403.1L84.4736 399.28C48.0578 393.403 26.0321 371.952 26.0321 339.041C26.0321 301.429 56.8681 277.333 101.8 277.333C147.027 277.333 174.338 302.016 180.506 342.861H137.042C132.049 321.117 121.477 312.301 101.213 312.301C81.5368 312.301 69.4961 320.529 69.4961 334.34V339.041C69.4961 351.089 77.1317 359.611 102.388 363.724L124.707 367.251C162.004 372.834 183.442 394.872 183.442 427.489C183.442 467.159 153.487 490.667 104.737 490.667Z" fill="#EB5437"/>
<path d="M196.518 488.316V279.684H241.157V363.431H310.464V279.684H354.809V488.316H310.464V403.1H241.157V488.316H196.518Z" fill="#EB5437"/>
</svg>
