<svg width="128" height="128" viewBox="0 0 128 128" fill="none" xmlns="http://www.w3.org/2000/svg">
<rect width="128" height="128" fill="#EB5437"/>
<path d="M26.1842 122.667C14.2169 122.667 6.58137 116.422 5.33325 106.138H16.1258C17.4474 111.721 20.2373 113.925 26.1842 113.925C31.7641 113.925 35.0679 111.868 35.0679 108.121V106.946C35.0679 103.86 33.0856 101.803 26.7716 100.775L21.1183 99.8199C12.0144 98.3507 6.50796 92.988 6.50796 84.7602C6.50796 75.3571 14.2169 69.3333 25.45 69.3333C36.7566 69.3333 43.5845 75.5041 45.1263 85.7153H34.2603C33.0122 80.2791 30.3691 78.0752 25.3032 78.0752C20.3841 78.0752 17.374 80.1321 17.374 83.5849V84.7602C17.374 87.7722 19.2829 89.9026 25.5969 90.931L31.1767 91.8126C40.5009 93.2084 45.8605 98.718 45.8605 106.872C45.8605 116.79 38.3718 122.667 26.1842 122.667Z" fill="#171717"/>
<path d="M49.1294 122.079V69.9209H60.2891V90.8576H77.6159V69.9209H88.7022V122.079H77.6159V100.775H60.2891V122.079H49.1294Z" fill="#171717"/>
</svg>
