<svg width="103" height="16" viewBox="0 0 103 16" fill="none" xmlns="http://www.w3.org/2000/svg">
<path d="M6.25262 15.9931C2.66397 15.9931 0.374276 14.1206 0 11.0365H3.23639C3.63268 12.7107 4.4693 13.3716 6.25262 13.3716C7.92585 13.3716 8.91659 12.7548 8.91659 11.6313V11.2789C8.91659 10.3536 8.32215 9.73682 6.42875 9.42842L4.7335 9.14204C2.00348 8.70146 0.35226 7.09334 0.35226 4.62609C0.35226 1.80638 2.66397 0 6.03246 0C9.42296 0 11.4705 1.85044 11.9328 4.91247H8.67441C8.30013 3.28232 7.50755 2.62145 5.98842 2.62145C4.51333 2.62145 3.61067 3.23827 3.61067 4.27363V4.62609C3.61067 5.52928 4.18309 6.16812 6.07649 6.47653L7.74973 6.74088C10.5458 7.15943 12.153 8.81161 12.153 11.2568C12.153 14.2307 9.90732 15.9931 6.25262 15.9931Z" fill="#D6D8CA"/>
<path d="M13.625 15.8168V0.176232H16.9714V12.8429H23.5103V15.8168H13.625Z" fill="#D6D8CA"/>
<path d="M24.129 15.8168L28.5983 0.176232H33.5739L37.9992 15.8168H34.5206L33.3978 11.5432H28.7083L27.5855 15.8168H24.129ZM29.3688 8.76755H32.6933L31.1081 2.86377H30.954L29.3688 8.76755Z" fill="#D6D8CA"/>
<path d="M41.4946 15.8168V3.15015H37.2235V0.176232H49.0682V3.15015H44.8191V15.8168H41.4946Z" fill="#D6D8CA"/>
<path d="M50.442 15.8168V0.176232H60.5255V3.04H53.7885V6.58668H59.887V9.3403H53.7885V12.9531H60.6355V15.8168H50.442Z" fill="#D6D8CA"/>
<path d="M62.3918 15.8168V0.176232H65.7383V6.4545H70.9342V0.176232H74.2586V15.8168H70.9342V9.42842H65.7383V15.8168H62.3918Z" fill="#D6D8CA"/>
<path d="M82.4566 15.9931C78.7799 15.9931 76.4681 13.8342 76.4681 10.2655V0.176232H79.8146V9.95712C79.8146 11.9618 80.7173 12.9531 82.4566 12.9531C84.2399 12.9531 85.1426 11.9397 85.1426 9.95712V0.176232H88.467V10.2655C88.467 13.8122 86.1553 15.9931 82.4566 15.9931Z" fill="#D6D8CA"/>
<path d="M90.6991 15.8168V0.176232H97.1498C100.166 0.176232 102.214 1.8945 102.214 4.33972C102.214 5.94783 101.553 6.9832 100.122 7.71016V7.86436C101.861 8.39306 102.698 9.53856 102.698 11.389C102.698 14.0545 100.694 15.8168 97.5241 15.8168H90.6991ZM97.2599 13.2394C98.4488 13.2394 99.3295 12.7328 99.3295 11.5652V10.8603C99.3295 9.91306 98.669 9.1861 97.1939 9.1861H94.0456V13.2394H97.2599ZM96.9297 6.69682C98.0085 6.69682 98.8451 6.19015 98.8451 5.04464V4.4058C98.8451 3.39247 98.2507 2.75363 96.9077 2.75363H94.0456V6.69682H96.9297Z" fill="#D6D8CA"/>
</svg>
